<svg xmlns="http://www.w3.org/2000/svg" xml:space="preserve" width="800" height="800" data-version="2">
    <rect width="100%" height="100%" fill="#d50000"/>
    <circle r="50" fill="#FFF" transform="matrix(4.2834 0 0 4.2834 400.127 499.564)"/>
    <rect width="78.12" height="168.865" x="-39.06" y="-84.433" fill="none" rx="0" ry="0" transform="matrix(.3744 -1.2245 1.2245 .3744 118.79 404.9)"/>
    <path fill="#FFF" d="M82.14 379.782q-2.74 8.963-1.857 17.067.9 8.094 5.185 14.881 4.289 6.775 11.701 11.96 7.413 5.186 17.724 8.339 13.641 4.17 24.985 2.98 11.357-1.188 19.437-7.997 8.081-6.808 11.982-19.568 2.22-7.262 2.958-14.053.738-6.79.746-13.43l10.972 3.355q.416 6.608-.514 13.46-.918 6.857-3.66 15.82-5.057 16.544-15.303 25.53-10.246 8.985-24.462 10.678-14.228 1.688-31.274-3.524-12.306-3.763-21.455-10.322-9.132-6.569-14.523-15.475-5.38-8.902-6.462-19.812-1.084-10.909 2.747-23.436 2.516-8.229 6.48-15.372 3.966-7.143 8.895-12.358l9.123 8.306q-3.947 4.457-7.593 10.118-3.633 5.665-5.831 12.853"/>
    <rect width="64.79" height="168.865" x="-32.395" y="-84.433" fill="none" rx="0" ry="0" transform="matrix(.7345 -1.049 1.049 .7345 159.246 323.452)"/>
    <path fill="#FFF" d="m230.34 328.201-36.424 52.02-92.856-65.018 7.558-10.794 83.205 58.26 28.866-41.225z"/>
    <rect width="34.72" height="168.865" x="-17.36" y="-84.433" fill="none" rx="0" ry="0" transform="matrix(.9366 -.8733 .8733 .9366 201.707 275.236)"/>
    <path fill="#FFF" d="m247.532 315.856-9.637 8.986-77.305-82.904 9.637-8.986z"/>
    <rect width="78.12" height="168.865" x="-39.06" y="-84.433" fill="none" rx="0" ry="0" transform="matrix(1.1306 -.6012 .6012 1.1306 259.18 234.987)"/>
    <path fill="#FFF" d="M251.023 191.313q-8.275 4.4-13.38 10.755-5.087 6.36-6.856 14.19-1.757 7.822-.181 16.73 1.575 8.908 6.637 18.427 6.698 12.595 15.562 19.773 8.87 7.19 19.398 8.088 10.528.9 22.308-5.365 6.705-3.565 12.027-7.846 5.323-4.281 10.023-8.97l5.387 10.13q-4.378 4.967-9.88 9.155-5.497 4.2-13.773 8.6-15.274 8.122-28.872 7.232-13.598-.89-24.847-9.745-11.255-8.865-19.624-24.602-6.042-11.363-7.873-22.47-1.814-11.101.67-21.21 2.49-10.099 9.438-18.58 6.948-8.48 18.513-14.63 7.598-4.04 15.452-6.288 7.854-2.247 15.026-2.45l.579 12.324q-5.943.36-12.523 1.786-6.574 1.437-13.21 4.966"/>
    <rect width="75.95" height="168.865" x="-37.975" y="-84.433" fill="none" rx="0" ry="0" transform="matrix(1.2647 -.2003 .2003 1.2647 352.385 202.655)"/>
    <path fill="#FFF" d="m352.998 199.283 56.291 56.078-15.392 2.438-48.98-48.057-10.253 12.617 6.923 43.723-13.014 2.06-17.728-111.955 13.014-2.06 8.84 55.825q3.575-5.674 7.397-11.335 3.808-5.673 7.524-11.434l27.007-41.096 15.24-2.413z"/>
    <rect width="90.21" height="168.865" x="-45.105" y="-84.433" fill="none" rx="0" ry="0" transform="matrix(1.257 .2443 -.2443 1.257 459.324 204.194)"/>
    <path fill="#FFF" d="M459.75 149.092q8.22 1.597 13.636 5.611 5.428 4.016 7.622 9.974 2.195 5.957.731 13.486-1.922 9.892-9.677 15.494-7.767 5.6-18.754 9.308l25.066 35.996q5.134-4.064 9.05-9.981 3.913-5.905 7.201-13.093l12.783 2.485q-4.38 9.584-9.868 17.283-5.488 7.7-12.511 12.96l18.051 26.18-17.119-3.327-11.157-16.152q-5.752 3.552-12.002 5.845-6.25 2.294-13.427 2.843-7.175.536-15.923-1.164-10.646-2.07-17.81-7.089-7.162-5.031-10.144-12.641t-1.073-17.428q1.568-8.07 5.658-13.275t10.443-8.627q6.353-3.422 14.798-6.202-2.813-4.656-5.214-9.35-2.4-4.692-3.478-9.754-1.062-5.072.032-10.703 1.479-7.605 5.986-12.337 4.52-4.731 11.429-6.388 6.922-1.655 15.67.046m8.521 96.749-26.894-38.804q-6.6 2.279-11.473 4.801-4.876 2.535-7.94 6.284-3.05 3.75-4.203 9.683-1.73 8.9 3.235 15.434 4.965 6.535 15.008 8.487 10.357 2.013 18.286.007 7.933-2.02 13.981-5.892m-11-86.417q-6.925-1.346-11.928 1.438-5 2.772-6.258 9.245-1.124 5.782 1.045 11.265 2.172 5.47 6.798 12.54 10.537-3.405 15.79-7.484 5.252-4.067 6.54-10.69 1.168-6.01-2.104-10.52-3.259-4.507-9.883-5.794"/>
    <rect width="79.98" height="168.865" x="-39.99" y="-84.433" fill="none" rx="0" ry="0" transform="matrix(1.074 .6974 -.6974 1.074 558.255 244.989)"/>
    <path fill="#FFF" d="m494.578 276.323 61.73-95.067 26.925 17.483q17.817 11.57 23.318 22.73 5.52 11.156-2.8 23.969-3.584 5.52-8.552 8.538-4.968 3.02-10.85 3.26-5.9.246-12.536-2.49l-.419.644q5.616 5.036 8.74 10.76 3.124 5.722 2.81 12.176-.312 6.454-4.998 13.67-5.704 8.786-13.69 12.196-7.997 3.404-17.408 1.674-9.419-1.719-19.568-8.309zm66.659-78.462-20.35 31.338 18.215 11.827q12.415 8.062 19.851 7.073 7.443-.999 12.548-8.86 5.279-8.13 1.909-15.402-3.37-7.273-15.785-15.334zm-7.594 52.843L534.849 238.5l-23.097 35.57 19.772 12.838q12.683 8.235 21.174 6.68 8.491-1.555 13.98-10.007 3.507-5.402 3.623-10.778.117-5.375-3.846-10.864-3.973-5.496-12.812-11.235"/>
    <rect width="90.52" height="168.865" x="-45.26" y="-84.433" fill="none" rx="0" ry="0" transform="matrix(.7527 1.036 -1.036 .7527 637.62 319.271)"/>
    <path fill="#FFF" d="m697.377 312.384 7.7 10.598-59.338 43.113q-9.717 7.06-20.156 8.661-10.428 1.594-20.532-3.141t-18.767-16.659q-12.344-16.989-9.575-32.566 2.77-15.576 18.194-26.784l59.09-42.933 7.79 10.722-59.4 43.159q-11.665 8.475-13.511 19.266-1.844 10.773 7.09 23.07 6.105 8.4 13.05 11.554 6.933 3.16 14.313 1.771 7.38-1.389 14.59-6.627z"/>
    <rect width="69.44" height="168.865" x="-34.72" y="-84.433" fill="none" rx="0" ry="0" transform="matrix(.353 1.231 -1.231 .353 682.773 410.628)"/>
    <path fill="#FFF" d="m724.682 366.695-46.36 44.503 62.943 13.34 3.91 13.638L668.063 421l-42.258 12.115-3.632-12.666 41.668-11.946 56.867-55.668z"/>
    <path fill="#D50000" fill-rule="evenodd" d="M279.257 395.525c-4.415 3.396-3.52 15.294 1.336 17.744 1.127.568 6.29 1.265 11.475 1.547 5.185.282 13.226 1.122 17.87 1.869l8.445 1.356.5 2.755c.276 1.514 1.486 4.724 2.69 7.132 1.836 3.669 11.994 33.126 17.859 51.785.882 2.808 2.996 8.464 4.698 12.568 1.701 4.104 4.929 12.234 7.171 18.067 8.897 23.13 12.306 28.886 19.814 33.446l4.725 2.871 46.09.204c45.43.202 62.096.737 64.694 2.073 1.927.99 5.043.833 5.93-.301 1.41-1.804 1.619-4.399.481-6.022-1-1.428-1.928-1.6-8.357-1.554-3.977.029-12.312-.7-18.52-1.618-10.158-1.503-14.9-1.678-47.354-1.751-31.46-.071-36.382-.243-38.544-1.344-4.099-2.086-3.604-3.096 1.131-2.309 2.508.417 6.018.389 8.865-.071 9.276-1.5 22.472-1.69 29.093-.415 4.968.955 9.212 1.09 20.628.66 10.64-.4 15.813-.27 19.914.503 4.46.842 6.173.856 8.798.072 7.806-2.33 11.23-2.948 13.27-2.391 1.195.326 2.359.26 2.612-.148.25-.405.163-.685-.194-.623-.356.062-1.29.07-2.077.019-1.184-.077-1.252-.27-.393-1.119 1.372-1.356 3.913-2.408 5.268-2.181.697.117.918-.262.614-1.054-.56-1.458.7-1.69 1.383-.255.257.54.335.245.173-.655-.173-.964.146-1.69.777-1.767.589-.072 1.581-.19 2.205-.263.624-.071 1.113-.336 1.085-.589-.156-1.45.223-2.46.791-2.11.36.223.655-.11.655-.739s-.47-1.143-1.047-1.143c-.576 0-1.048-.375-1.048-.832 0-.457-.354-.613-.787-.345-.467.288-.667-.254-.492-1.328.163-.999-.1-2.346-.587-2.994-.77-1.028-.705-1.038.51-.084.767.601 1.64.847 1.942.546.3-.3.027-.915-.608-1.364-.96-.679-.927-.743.194-.384.742.238 1.568.076 1.837-.357.286-.463.866-.506 1.4-.105 1.206.905 4.599 1.06 4.058.184-.233-.376-.058-.91.388-1.185.447-.276.631-.793.41-1.15-.22-.357.1-.841.71-1.075 1.834-.704 7.593-11.26 12.071-22.126 5.875-14.253 7.3-18.863 9.221-29.849.227-1.296.57-3.09.764-3.988.81-3.761-6.606-7.96-14.216-8.047-2.564-.03-9.887-2.048-12.424-3.424-.891-.483-7.203-.789-15.52-.75-7.923.036-14.946-.29-16.154-.749-7.786-2.96-18.15-3.813-47.197-3.882-10.457-.024-14.316-.316-16.68-1.262-2.42-.969-4.914-1.137-11.72-.789-4.756.243-9.268.76-10.028 1.151-.76.39-3.326.941-5.702 1.224-2.376.283-7.855 1.7-12.175 3.15-5.901 1.98-8.321 2.46-9.729 1.928-1.353-.51-2.412-.353-3.815.567-1.067.699-2.237.974-2.6.61-.643-.65-3.898-8.19-7.236-16.766-.924-2.376-3.024-6.535-4.664-9.244-1.641-2.707-2.984-5.148-2.984-5.423 0-1.38-4.365-5.945-6.918-7.236-2.498-1.263-10.834-3.386-20.574-5.241-1.512-.289-5.847-1.545-9.634-2.793-7.882-2.597-11.974-2.832-14.567-.837m186.453 70.467c-.839.634-1.083 1.153-.543 1.153.54 0 .76.36.489.798-.272.44-.823.596-1.225.347-.402-.249-.731-.102-.731.327 0 .428-.712 1.005-1.583 1.281-.87.276-1.375.836-1.123 1.244.252.408.763.554 1.135.323.372-.23.935.03 1.25.577.315.547.283.732-.07.412-.354-.32-1.185-.143-1.848.393-.961.778-1.085.776-.615-.007.7-1.166-.21-1.261-1.859-.196-.856.553-.897.765-.15.773.565.007.825.341.576.743-.248.403-.087.957.36 1.233.446.276.622.806.392 1.178-.23.372-.004.933.501 1.245.575.355.71.229.36-.338-.36-.582.09-.925 1.253-.956l1.814-.05-1.768-.71c-2.19-.881-2.322-1.545-.196-.99.913.24 1.571.025 1.571-.512 0-.508.265-.76.59-.56.324.2.642-.532.708-1.627.065-1.095.538-2.25 1.049-2.565.51-.317.899-.8.862-1.076-.037-.276-.04-.59-.007-.698.209-.682.564-2.94.46-2.92-.07.013-.814.543-1.652 1.178m-7.509 13.675c0 .407.409.991.908 1.299.535.332.694.218.387-.279-.285-.462-.075-1.019.468-1.238.596-.24.442-.422-.388-.46-.756-.033-1.375.27-1.375.678m19.638 24.718c0 .15.53.712 1.178 1.25.68.564 1.178.64 1.178.18 0-.439-.53-1.001-1.178-1.25-.648-.25-1.178-.33-1.178-.18m-11.81 4.172c-1.14 3.805-.178 6.131 2.769 6.695 1.918.366 1.98.262 1.473-2.442-.291-1.553-1.153-3.85-1.916-5.104l-1.387-2.28zm32.233 2.137c0 .673.353 1.225.785 1.225.432 0 .786-.333.786-.74 0-.406-.354-.957-.786-1.224-.432-.267-.785.066-.785.74m-3.142-.039c0 .17.53.513 1.178.762.648.249 1.178.109 1.178-.31 0-.418-.53-.76-1.178-.76-.648 0-1.178.139-1.178.308m-.755 3.563c-.902 1.685-.328 3.984.996 3.984.606 0 .598-.261-.027-.886-.584-.584-.644-1.517-.176-2.749.852-2.24.34-2.467-.793-.35m1.54.796c0 .407.295.922.655 1.144.36.222.655-.11.655-.74 0-.628-.295-1.143-.655-1.143-.36 0-.655.332-.655.74m-8.64 8.733c0 .457.353.613.785.346.432-.267.786-.641.786-.832 0-.19-.354-.346-.786-.346-.432 0-.785.374-.785.832m-1.987 1.487c.44.713.19.857-.888.515-1.1-.349-1.501-.098-1.501.94 0 1.194.282 1.287 1.789.59 1.992-.923 2.25-1.638.894-2.475-.589-.365-.692-.214-.294.43m-5.868 4.797c0 .457.353.613.785.346.432-.267.786-.641.786-.832 0-.19-.354-.346-.786-.346-.432 0-.785.374-.785.832m-97.632 21.595c-5.346 1.711-9.29 5.97-11.934 12.89-1.718 4.497-2.08 6.488-1.725 9.484 1.245 10.516 9.404 17.28 20.79 17.236 16.708-.065 25.956-19.723 15.845-33.682-4.269-5.89-14.688-8.58-22.976-5.928m74.46-.252c-9.375 3.355-15.507 13.856-14.256 24.416.645 5.45 4.464 9.869 11.626 13.452 7.667 3.836 11.962 3.841 18.386.022 2.566-1.525 5.465-3.734 6.44-4.91 2.168-2.61 4.903-9.654 4.903-12.625 0-4.558-2.354-10.152-5.96-14.164-2.968-3.3-4.476-4.265-8.716-5.574-5.631-1.74-8.84-1.899-12.423-.617m-72.659 14.743c-1.704 1.704-2.118 6.15-.802 8.61.979 1.828 4.644 3.122 7.37 2.6 2.656-.507 5.214-3.696 5.214-6.497 0-1.18-.732-3.076-1.628-4.214-2.105-2.677-7.7-2.952-10.154-.499m73.894.499c-2.257 2.87-2.168 7.36.19 9.576 4.046 3.8 11.535.553 11.535-5.001 0-5.984-8.123-9.155-11.725-4.575"/>
</svg>
